<?xml version="1.0" encoding="utf-8"?>
<!-- Generator: Adobe Illustrator 22.0.1, SVG Export Plug-In . SVG Version: 6.00 Build 0)  -->
<svg version="1.1" id="Layer_1" xmlns="http://www.w3.org/2000/svg" xmlns:xlink="http://www.w3.org/1999/xlink" x="0px" y="0px"
	 viewBox="0 0 2000 2000" style="enable-background:new 0 0 2000 2000;" xml:space="preserve">
<style type="text/css">
	.st0{fill:#FD360D;}
	.st1{fill:#FE9A10;}
	.st2{fill:#F5D25E;}
</style>
<g>
	<path class="st0" d="M775.1,1056c3.3-84.4-41.1-169.8-113.5-213.9c-31.4-19.1-67-30.8-98.1-50.5c-31-19.8-58.5-51.1-59-87.9
		c-32.4,21.8-33.8,68.7-27.6,107.3c8,49.3,22.8,97.6,43.8,142.9c25.6,55.1,61.6,111.5,52.4,171.6c-11.8,77.8-91.9,123.4-136.9,187.9
		c-76.5,109.7-40.9,267.2,42.6,371.7c23.3,29.2,50.4,56,83.3,73.6c8.7,4.6,17.7,8.5,26.9,11.8c-7-17.3-12.7-34.4-17.5-50.3
		c-38.5-115.5-69.3-238.7-30.8-362c15.4,92.4,92.4,154,184.8,100.1c46.2-23.1,38.5-84.7,15.4-130.9
		c-23.1-69.3-53.9-138.6-61.6-215.6c15.4,61.6,46.2,107.8,107.8,130.9c154,46.2,254.2-100.1,292.7-231
		c39.2-124.3,11.8-248.6-39.8-363.4c-12.7-18.1-23.1-37.8-29.5-60.2c10.4,19.7,20.3,39.8,29.5,60.2c48.5,69.1,130.9,114.6,155.3,194
		c77,200.2-107.8,338.9-192.5,500.6c-38.5,77-69.3,207.9,23.1,238.7c177.1,46.2,346.6-46.2,462.1-184.8
		c-28.1,126.4-107.3,252.7-86.1,373.3c47.4-11.1,81.6-22.2,94.6-30c55.3-32.9,102.2-78.3,144.2-127.2
		c50.4-58.7,95.2-125,112.6-200.4c16-69.4,7.6-142.1-8.1-211.5c-25.7-113.4-71.2-222.3-133.8-320.3
		c-47.6-74.5-107.9-154.8-91.1-241.6c-58.3,46.3-50.9,138.2-20,206s79.9,129.3,90,203.1c10.3,75.1-25.6,154.6-88.7,196.6
		c-45.1,30-100.1,40.7-149.1,63.6c-49.1,22.9-96.1,66.3-95.1,120.5c-33.2-56.3-15.7-128.9,14.1-187.1
		c29.8-58.1,71.3-111.4,87.4-174.7c13.5-53.1,7.9-109.5-5.1-162.7c-28.7-117.9-93.7-226.7-183.9-307.8
		c-68.8-61.9-156.1-113.9-185.4-201.8c-27-80.7,3.4-168.1,33.5-247.7c-30.3,69.9-90.1,121.7-140.1,179.3s-92.9,131.6-77.9,206.3
		c16.4,81.3,95.5,135.9,123.7,213.9c22.8,63.2,7.2,138.8-39,187.7c-21.8,23.1-49.1,40.1-72.1,62
		C795.6,1012.6,780.5,1033.3,775.1,1056c-0.3,7.7-0.9,15.5-2,23.2"/>
	<path class="st1" d="M1488.1,1396.7c-115.5,138.6-285,231-462.1,184.8c-92.4-30.8-61.6-161.7-23.1-238.7
		c84.7-161.7,269.6-300.4,192.5-500.6c-24.4-79.3-106.8-124.9-155.3-194c51.6,114.9,79.1,239.1,39.8,363.4
		c-38.5,130.9-138.6,277.3-292.7,231c-61.6-23.1-92.4-69.3-107.8-130.9c7.7,77,38.5,146.3,61.6,215.6
		c23.1,46.2,30.8,107.8-15.4,130.9c-92.4,53.9-169.4-7.7-184.8-100.1c-38.5,123.2-7.7,246.5,30.8,362c4.8,15.9,10.5,33,17.5,50.3
		c34.1,12.5,71.1,17.2,107.5,20.6c16.9,1.6,37.9,3.6,62.1,5.9c-30.1-60.2-62.1-119.5-48.4-192.2c30.8,30.8,92.4,61.6,115.5,23.1
		c28.3-56.5,43.5-113.1,39.9-175.6c-0.7-5.5-1.1-11.2-1.4-17c0.6,5.7,1.1,11.4,1.4,17c19.3,164.6,211.6,228.7,360.6,206.4
		c-4.9,54.3-21.8,103-46.9,146.5c84.8-7.6,163.9-21.3,222.6-35.1C1380.8,1649.5,1460.1,1523.1,1488.1,1396.7z"/>
	<path class="st2" d="M865.7,1452.2c3.6,62.5-11.6,119-39.9,175.6c-23.1,38.5-84.7,7.7-115.5-23.1c-13.6,72.7,18.3,132.1,48.4,192.2
		c94,8.6,236,19.6,371.3,11.9c16.6-0.9,33.1-2.2,49.4-3.7c25.1-43.5,42-92.2,46.9-146.5C1077.3,1680.9,885,1616.8,865.7,1452.2z"/>
</g>
</svg>
